<?xml version="1.0" encoding="utf-8"?>
<!-- Generator: Adobe Illustrator 23.1.1, SVG Export Plug-In . SVG Version: 6.00 Build 0)  -->
<svg version="1.1" id="Layer_1" xmlns="http://www.w3.org/2000/svg" xmlns:xlink="http://www.w3.org/1999/xlink" x="0px" y="0px"
	 width="40px" height="80px" viewBox="0 0 40 80" style="enable-background:new 0 0 40 80;" xml:space="preserve" preserveAspectRatio="none">
<style type="text/css">
	.st0{fill-rule:evenodd;clip-rule:evenodd;fill:url(#SVGID_1_);}
	.st1{fill:#606162;}
	.st2{fill-rule:evenodd;clip-rule:evenodd;fill:#393B3D;}
	.st3{fill-rule:evenodd;clip-rule:evenodd;fill:#FFFFFF;}
</style>
<linearGradient id="SVGID_1_" gradientUnits="userSpaceOnUse" x1="-703.2142" y1="41.5251" x2="-703.2142" y2="42.4866" gradientTransform="matrix(14 0 0 15.2725 9855 -631.2713)">
	<stop  offset="0" style="stop-color:#C7B56F"/>
	<stop  offset="0.5885" style="stop-color:#A58D51"/>
	<stop  offset="1" style="stop-color:#D6B871"/>
</linearGradient>
<path class="st0" d="M15.6,5.1C16.5,5.6,17,6.6,17,7.6v4.8c0,1-0.5,2-1.4,2.5l-4.1,2.4c-0.9,0.5-2,0.5-2.9,0l-4.1-2.4
	c-1-0.5-1.5-1.5-1.5-2.5V7.6c0-1,0.6-2,1.4-2.5l4.1-2.4c0.9-0.5,2-0.5,2.9,0L15.6,5.1z M9,3.6L5,6C4.4,6.3,4,7,4,7.6v4.7
	C4,13,4.4,13.7,5,14l4,2.4c0.6,0.3,1.3,0.3,1.9,0L15,14c0.6-0.3,1-1,1-1.7V7.6C16,7,15.6,6.3,15,6l-4-2.4C10.4,3.3,9.6,3.3,9,3.6
	L9,3.6z M11,4.8l3,1.7c0.6,0.4,1,1.1,1,1.8v3.3c0,0.8-0.4,1.4-1,1.8l-3,1.8c-0.6,0.4-1.4,0.4-2.1,0L6,13.5c-0.6-0.4-1-1.1-1-1.8V8.3
	c0-0.7,0.4-1.4,1-1.8l3-1.7C9.6,4.5,10.4,4.5,11,4.8L11,4.8z M8,12h4V8H8V12z"/>
<path class="st1" d="M15.6,25.1c0.9,0.5,1.4,1.5,1.4,2.5v4.8c0,1-0.5,2-1.4,2.5l-4.1,2.4c-0.9,0.5-2,0.5-2.9,0l-4.1-2.4
	c-1-0.5-1.5-1.5-1.5-2.5v-4.8c0-1,0.6-2,1.4-2.5l4.1-2.4c0.9-0.5,2-0.5,2.9,0L15.6,25.1z M9,23.6L5,26c-0.6,0.3-1,1-1,1.6v4.7
	C4,33,4.4,33.7,5,34l4,2.4c0.6,0.3,1.3,0.3,1.9,0L15,34c0.6-0.3,1-1,1-1.7v-4.7c0-0.6-0.4-1.3-1-1.6l-4-2.4
	C10.4,23.3,9.6,23.3,9,23.6L9,23.6z M11,24.8l3,1.7c0.6,0.4,1,1.1,1,1.8v3.3c0,0.8-0.4,1.4-1,1.8l-3,1.8c-0.6,0.4-1.4,0.4-2.1,0
	L6,33.5c-0.6-0.4-1-1.1-1-1.8v-3.4c0-0.7,0.4-1.4,1-1.8l3-1.7C9.6,24.5,10.4,24.5,11,24.8L11,24.8z M8,32h4v-4H8V32z"/>
<path class="st2" d="M35.6,25.1c0.9,0.5,1.4,1.5,1.4,2.5v4.8c0,1-0.5,2-1.4,2.5l-4.1,2.4c-0.9,0.5-2,0.5-2.9,0l-4.1-2.4
	c-1-0.5-1.5-1.5-1.5-2.5v-4.8c0-1,0.6-2,1.4-2.5l4.1-2.4c0.9-0.5,2-0.5,2.9,0L35.6,25.1z M29,23.6L25,26c-0.6,0.3-1,1-1,1.6v4.7
	c0,0.7,0.4,1.4,1,1.7l4,2.4c0.6,0.3,1.3,0.3,1.9,0L35,34c0.6-0.3,1-1,1-1.7v-4.7c0-0.6-0.4-1.3-1-1.6l-4-2.4
	C30.4,23.3,29.6,23.3,29,23.6L29,23.6z M31,24.8l3,1.7c0.6,0.4,1,1.1,1,1.8v3.3c0,0.8-0.4,1.4-1,1.8l-3,1.8c-0.6,0.4-1.4,0.4-2.1,0
	L26,33.5c-0.6-0.4-1-1.1-1-1.8v-3.4c0-0.7,0.4-1.4,1-1.8l3-1.7C29.6,24.5,30.4,24.5,31,24.8L31,24.8z M28,32h4v-4h-4V32z"/>
<path id="coin" class="st3" d="M15.6,45.1c0.9,0.5,1.4,1.5,1.4,2.5v4.8c0,1-0.5,2-1.4,2.5l-4.1,2.4c-0.9,0.5-2,0.5-2.9,0l-4.1-2.4
	c-1-0.5-1.5-1.5-1.5-2.5v-4.8c0-1,0.6-2,1.4-2.5l4.1-2.4c0.9-0.5,2-0.5,2.9,0L15.6,45.1z M9,43.6L5,46c-0.6,0.3-1,1-1,1.6v4.7
	C4,53,4.4,53.7,5,54l4,2.4c0.6,0.3,1.3,0.3,1.9,0L15,54c0.6-0.3,1-1,1-1.7v-4.7c0-0.6-0.4-1.3-1-1.6l-4-2.4
	C10.4,43.3,9.6,43.3,9,43.6L9,43.6z M11,44.8l3,1.7c0.6,0.4,1,1.1,1,1.8v3.3c0,0.8-0.4,1.4-1,1.8l-3,1.8c-0.6,0.4-1.4,0.4-2.1,0
	L6,53.5c-0.6-0.4-1-1.1-1-1.8v-3.4c0-0.7,0.4-1.4,1-1.8l3-1.7C9.6,44.5,10.4,44.5,11,44.8L11,44.8z M8,52h4v-4H8V52z"/>
<path id="small-p-block" class="st2" d="M16,62c1.1,0,1.9,0.8,2,1.9V64v12c0,1.1-0.8,1.9-1.9,2H16h-6v-2h6V64H4v14c-1.1,0-2-0.9-2-2
	V64c0-1.1,0.8-1.9,1.9-2H4H16z M14,74h-4v-2h2v-4H8v10H6V66h2h6v2V74z"/>
</svg>
