<?xml version="1.0" encoding="utf-8"?>
<!-- Generator: Adobe Illustrator 21.1.0, SVG Export Plug-In . SVG Version: 6.00 Build 0)  -->
<!DOCTYPE svg PUBLIC "-//W3C//DTD SVG 1.1//EN" "http://www.w3.org/Graphics/SVG/1.1/DTD/svg11.dtd">
<svg version="1.1" id="ROBLOX" xmlns="http://www.w3.org/2000/svg" xmlns:xlink="http://www.w3.org/1999/xlink" x="0px" y="0px"
	 width="914px" height="259.7px" viewBox="0 0 914 259.7" style="enable-background:new 0 0 914 259.7;" xml:space="preserve">
<style type="text/css">
	.st0{fill:#E2231A;}
	.st1{fill:#FFFFFF;}
</style>
<g>
	<path class="st0" d="M181.9,1.6l-32.4,126l126,32.4l32.4-126L181.9,1.6z M237.8,96.2l-24.6-6.3l6.3-24.6l24.6,6.3L237.8,96.2z"/>
	<path class="st0" d="M87.5,15.7c32.8,0,47.3,19.6,47.3,38.9c0,12-5.2,22.2-14.8,28.8c14,15.9,22.5,37.4,25.1,62.3H85.4
		c-2.4-34.6-9.8-48.2-25.3-48.2v48.2H2.5v-130C2.5,15.7,87.5,15.7,87.5,15.7z M60.1,67.5h1.6c10.5,0,15.5-3.8,15.5-12.2
		c0-5.6-2.8-12.9-13.6-12.9h-3.5V67.5z"/>
	<path class="st0" d="M402.6,15.7c42.1,0,50.5,21.3,50.5,36.3c0,10.6-3.8,20.4-16.9,27.9c16.4,8.7,20.4,18.7,20.4,29.9
		c0,20.1-14.1,36-44.5,36h-90.8V15.7H402.6z M378.9,67.2h1.4c12.6,0,17.3-3.5,17.3-12.7c0-7.2-3.5-12.6-15.2-12.6h-3.5L378.9,67.2
		L378.9,67.2z M378.9,117.1h1.7c13.3,0,18.3-3.7,18.3-13.4c0-8.6-4-14.7-16.1-14.7h-4v28.1H378.9z"/>
	<path class="st0" d="M474.2,15.7h57.6v97.4h50.5v32.6H474.2V15.7z"/>
	<path class="st0" d="M599.9,15.7v130.1H730V15.7H599.9z M677.6,93.4h-25.4V68h25.4V93.4z"/>
	<path class="st0" d="M745.5,15.7h62.8l19.2,23.9l18.3-23.9h62.5l-49.2,63.9l52.4,66.2h-63L827.9,120L808,145.7h-62.5l50.8-65.8
		L745.5,15.7z"/>
</g>
<path class="st1" d="M131.8,188h17.6c10.3,0,17,5.3,17,14.3v0.1c0,9.7-7.4,14.8-17.6,14.8h-5.7v11.7h-11.4L131.8,188L131.8,188z
	 M148.7,208.3c4,0,6.5-2.2,6.5-5.4v-0.1c0-3.5-2.5-5.3-6.6-5.3h-5.4v10.8H148.7z"/>
<path class="st1" d="M169.1,213.3v-0.1c0-9,7.4-16.6,17.5-16.6s17.5,7.4,17.5,16.5v0.1c0,9-7.4,16.6-17.6,16.6
	C176.4,229.7,169.1,222.3,169.1,213.3z M193.3,213.3v-0.1c0-3.9-2.9-7.2-6.8-7.2c-4,0-6.6,3.2-6.6,7.1v0.1c0,3.9,2.8,7.1,6.7,7.1
	C190.6,220.3,193.3,217.1,193.3,213.3z"/>
<path class="st1" d="M205,197.3h10.8l4.2,15.9l4.9-16h9.1l5,16.1l4.3-16H254l-9.8,31.9h-9.6l-5.2-16.5l-5.3,16.5h-9.5L205,197.3z"/>
<path class="st1" d="M255,213.3v-0.1c0-9.3,6.6-16.6,16-16.6c10.9,0,15.9,8,15.9,17.3c0,0.7,0,1.5-0.1,2.3h-21.2
	c0.9,3.5,3.4,5.2,6.9,5.2c2.7,0,4.7-1,7-3.2l6.1,5.1c-3,3.9-7.4,6.4-13.7,6.4C262,229.7,255,223,255,213.3z M276.6,210.5
	c-0.4-3.5-2.5-5.7-5.6-5.7c-2.9,0-4.9,2.2-5.5,5.7H276.6z"/>
<path class="st1" d="M291.7,197.3h11.1v6.4c1.8-4.3,4.7-7.1,10-6.9v11.7h-0.9c-5.8,0-9.1,3.3-9.1,10.6v9.9h-11.1V197.3z"/>
<path class="st1" d="M316.8,186.2h11.5v8.2h-11.5V186.2z M317.1,197.3h11.1V229h-11.1V197.3z"/>
<path class="st1" d="M334.4,197.3h11.1v4.5c2-2.6,5-5.2,9.5-5.2c6.7,0,10.8,4.5,10.8,11.7V229h-11.1v-17.2c0-3.5-1.8-5.4-4.5-5.4
	s-4.7,1.9-4.7,5.4V229h-11.1L334.4,197.3L334.4,197.3z"/>
<path class="st1" d="M371.3,234.8l3.6-7.4c3.4,1.9,6.8,3,11.1,3c5.5,0,8.3-2.8,8.3-7.8v-1.2c-2.2,2.6-5.2,4.7-9.7,4.7
	c-7.8,0-14.1-5.6-14.1-14.7v-0.1c0-9.1,6.4-14.8,13.7-14.8c4.8,0,7.6,1.9,10,4.5v-3.7h11.1v24c0,5.8-1.3,9.9-4.1,12.6
	c-2.9,2.9-7.3,4.5-13.9,4.5C381,238.4,375.9,237.1,371.3,234.8z M394.3,211.4v-0.1c0-3.5-2.8-6.1-6.5-6.1c-3.8,0-6.5,2.6-6.5,6.2
	v0.1c0,3.5,2.7,6.1,6.5,6.1C391.6,217.6,394.3,215,394.3,211.4z"/>
<path class="st1" d="M428.3,188h11.4v41h-11.4V188z"/>
<path class="st1" d="M446.5,197.3h11.1v4.3c2-2.6,5-5,9.4-5c4.2,0,7.4,1.9,9.1,5.2c2.8-3.2,6-5.2,10.6-5.2c6.7,0,10.8,4.2,10.8,11.6
	V229h-11.1v-17.2c0-3.5-1.7-5.3-4.3-5.3c-2.6,0-4.6,1.9-4.6,5.3V229h-11.1v-17.2c0-3.5-1.8-5.3-4.4-5.3s-4.5,1.9-4.5,5.3V229h-11.1
	v-31.7H446.5z"/>
<path class="st1" d="M501.8,219.9v-0.1c0-6.6,5-10,12.4-10c2.9,0,5.8,0.5,7.6,1.2v-0.5c0-3.3-2-5.2-6.3-5.2c-3.3,0-5.9,0.7-8.8,1.8
	l-2.3-7.8c3.6-1.5,7.4-2.5,12.8-2.5c5.7,0,9.5,1.3,12.1,3.9c2.4,2.3,3.4,5.6,3.4,10.1V229h-11v-3.3c-2.2,2.4-5.2,4-9.4,4
	C506.4,229.6,501.8,226.1,501.8,219.9z M522,217.5V216c-1.2-0.5-2.8-0.8-4.4-0.8c-3.2,0-5.1,1.5-5.1,3.9v0.1c0,2.2,1.6,3.5,3.9,3.5
	C519.7,222.7,522,220.6,522,217.5z"/>
<path class="st1" d="M538.2,234.8l3.6-7.4c3.4,1.9,6.8,3,11.1,3c5.5,0,8.3-2.8,8.3-7.8v-1.2c-2.2,2.6-5.2,4.7-9.7,4.7
	c-7.8,0-14.1-5.6-14.1-14.7v-0.1c0-9.1,6.4-14.8,13.7-14.8c4.8,0,7.6,1.9,10,4.5v-3.7H572v24c0,5.8-1.3,9.9-4.1,12.6
	c-2.9,2.9-7.3,4.5-13.9,4.5C547.9,238.4,542.8,237.1,538.2,234.8z M561.2,211.4v-0.1c0-3.5-2.8-6.1-6.5-6.1c-3.8,0-6.5,2.6-6.5,6.2
	v0.1c0,3.5,2.7,6.1,6.5,6.1S561.2,215,561.2,211.4z"/>
<path class="st1" d="M578.1,186.2h11.5v8.2h-11.5V186.2z M578.3,197.3h11.1V229h-11.1V197.3z"/>
<path class="st1" d="M595.6,197.3h11.1v4.5c2-2.6,5-5.2,9.5-5.2c6.7,0,10.8,4.5,10.8,11.7V229h-11v-17.2c0-3.5-1.8-5.4-4.5-5.4
	s-4.7,1.9-4.7,5.4V229h-11.1L595.6,197.3L595.6,197.3z"/>
<path class="st1" d="M631.2,219.9v-0.1c0-6.6,5-10,12.4-10c2.9,0,5.8,0.5,7.6,1.2v-0.5c0-3.3-2-5.2-6.3-5.2c-3.3,0-5.9,0.7-8.8,1.8
	l-2.3-7.8c3.6-1.5,7.4-2.5,12.8-2.5c5.7,0,9.5,1.3,12.1,3.9c2.4,2.3,3.4,5.6,3.4,10.1V229h-11v-3.3c-2.2,2.4-5.2,4-9.4,4
	C635.8,229.6,631.2,226.1,631.2,219.9z M651.4,217.5V216c-1.2-0.5-2.8-0.8-4.4-0.8c-3.2,0-5.1,1.5-5.1,3.9v0.1
	c0,2.2,1.6,3.5,3.9,3.5C649.1,222.7,651.4,220.6,651.4,217.5z"/>
<path class="st1" d="M669.5,219.1v-12.9h-3.7v-8.9h3.7v-8h11.1v8h7.4v8.9h-7.4V217c0,2.2,1,3.2,3,3.2c1.5,0,2.9-0.4,4.2-1.1v8.7
	c-2,1.1-4.6,1.9-7.7,1.9C673.5,229.6,669.5,226.7,669.5,219.1z"/>
<path class="st1" d="M692.9,186.2h11.5v8.2h-11.5V186.2z M693.1,197.3h11.1V229h-11.1V197.3z"/>
<path class="st1" d="M709.2,213.3v-0.1c0-9,7.4-16.6,17.5-16.6s17.5,7.4,17.5,16.5v0.1c0,9-7.4,16.6-17.6,16.6
	C716.5,229.7,709.2,222.3,709.2,213.3z M733.4,213.3v-0.1c0-3.9-2.9-7.2-6.8-7.2c-4,0-6.6,3.2-6.6,7.1v0.1c0,3.9,2.8,7.1,6.7,7.1
	C730.7,220.3,733.4,217.1,733.4,213.3z"/>
<path class="st1" d="M748.8,197.3H760v4.5c2-2.6,5-5.2,9.5-5.2c6.7,0,10.8,4.5,10.8,11.7V229h-11.1v-17.2c0-3.5-1.8-5.4-4.5-5.4
	s-4.7,1.9-4.7,5.4V229h-11.1v-31.7H748.8z"/>
</svg>
