<?xml version="1.0" encoding="UTF-8"?>
<svg width="32px" height="64px" viewBox="0 0 32 64" version="1.1" preserveAspectRatio="none" xmlns="http://www.w3.org/2000/svg" xmlns:xlink="http://www.w3.org/1999/xlink">
    <!-- Generator: Sketch 52.4 (67378) - http://www.bohemiancoding.com/sketch -->
    <title>dark_common_small</title>
    <desc>Created with Sketch.</desc>
    <g id="dark_common_small" stroke="none" stroke-width="1" fill="none" fill-rule="evenodd">
        <g id="refresh_small" fill="#393B3D">
            <path d="M12.7132521,4.2867479 C11.6145024,2.89401257 9.91165512,2 8,2 C5.38756235,2 3.16508423,3.66961525 2.34141142,6 L0.25203497,6 C1.14012056,2.54954557 4.27232114,0 8,0 C10.4637309,0 12.6673408,1.11371058 14.1348489,2.86515106 L15.1464466,1.85355339 C15.3417088,1.65829124 15.6582912,1.65829124 15.8535534,1.85355339 C15.9473216,1.94732158 16,2.07449854 16,2.20710678 L16,6 L12.2071068,6 C11.9309644,6 11.7071068,5.77614237 11.7071068,5.5 C11.7071068,5.36739176 11.7597852,5.2402148 11.8535534,5.14644661 L12.7132521,4.2867479 Z M3.2867479,11.7132521 C4.38549758,13.1059874 6.08834488,14 8,14 C10.6124377,14 12.8349158,12.3303847 13.6585886,10 L15.747965,10 C14.8598794,13.4504544 11.7276789,16 8,16 C5.53626909,16 3.33265922,14.8862894 1.86515106,13.1348489 L0.853553391,14.1464466 C0.658291245,14.3417088 0.341708755,14.3417088 0.146446609,14.1464466 C0.0526784202,14.0526784 -8.719386e-16,13.9255015 -8.8817842e-16,13.7928932 L-8.8817842e-16,10 L3.79289322,10 C4.06903559,10 4.29289322,10.2238576 4.29289322,10.5 C4.29289322,10.6326082 4.2402148,10.7597852 4.14644661,10.8535534 L3.2867479,11.7132521 Z" id="circle-with-arrows"></path>
        </g>
        <g id="navigation-/-pushRight_small" transform="translate(0.000000, 16.000000)" fill="#393B3D">
            <path d="M3.03319004,8.87876517 L7.91528743,13.7608626 C8.26242013,14.1079953 8.26242013,14.6708086 7.91528743,15.0179413 C7.56815472,15.365074 7.00534141,15.365074 6.6582087,15.0179413 L0.260349172,8.62008176 C-0.0867835315,8.27294905 -0.0867835315,7.71013573 0.260349172,7.36300303 L6.6582087,0.9651435 C7.00534141,0.618010796 7.56815472,0.618010796 7.91528743,0.9651435 C8.26242013,1.3122762 8.26242013,1.87508952 7.91528743,2.22222222 L3.03652225,7.1009874 L13.5162542,7.1009874 C14.007174,7.1009874 14.4051431,7.49895651 14.4051431,7.98987628 C14.4051431,8.48079606 14.007174,8.87876517 13.5162542,8.87876517 L3.03319004,8.87876517 Z" id="caret-tail-right" transform="translate(7.202571, 7.991542) scale(-1, 1) translate(-7.202571, -7.991542) "></path>
        </g>
        <g id="rating_small" transform="translate(0.000000, 32.000000)" fill="#000000" fill-opacity="0.5">
            <path d="M13.203,6.812 C13.203,6.812 12.149,6.817 11.215,6.82 C10.679,6.886 10.23,7.259 10.1,7.795 L8.568,14.14 C8.474,14.533 8.563,14.941 8.813,15.258 C9.044,15.552 9.384,15.723 9.753,15.749 L11.685,15.746 C12.538,15.746 13.273,15.143 13.441,14.306 L14.525,8.9 C14.718,7.939 14.105,7.037 13.203,6.812 M7.306,13.906 L8.838,7.561 C8.903,7.29 9.017,7.041 9.165,6.818 L8.067,6.813 L8.885,2.369 C9.116,1.137 8.171,0 6.918,0 C6.561,0 6.251,0.244 6.166,0.589 L4.941,5.682 C4.762,6.386 4.425,6.833 3.789,6.833 C2.801,6.833 2,7.634 2,8.623 L2,13.966 C2,14.955 2.801,15.756 3.789,15.756 L7.659,15.75 C7.286,15.21 7.15,14.549 7.306,13.906" id="Fill-1"></path>
        </g>
        <g id="playing_small" transform="translate(0.000000, 48.000000)" fill="#000000" fill-opacity="0.5">
            <g id="currently-playing-small" transform="translate(1.000000, 0.000000)">
                <path d="M13.85,14 C13.85,12 12.14,10.16 10.69,9 C10.1713637,8.56974515 9.58285176,8.23151987 8.95,8 C10.2421552,7.61544216 11.1285474,6.42816452 11.13,5.08 L11.13,3.08 C11.1301117,2.27561122 10.8071869,1.5048732 10.233717,0.940804427 C9.66024704,0.376735656 8.88427706,0.0665935124 8.08,0.08 L6,0.08 C4.34284341,0.107135952 3.0106459,1.45265544 3,3.11 L3,5.11 C2.98704199,6.46936789 3.88977981,7.66754719 5.2,8.03 C4.58344447,8.26333448 4.00664081,8.5905272 3.49,9 C2,10.13 0.28,12 0.27,14 L0.27,14.14 C0.27,14.62 3.68,15.95 7.06,15.95 C10.44,15.95 13.85,14.62 13.85,14.14 L13.85,14 Z M6.85,14.42 C6.65679006,14.5515978 6.40720036,14.5673831 6.19895043,14.4611756 C5.9907005,14.3549682 5.85692507,14.1436667 5.85,13.91 L5.85,10.28 C5.85692507,10.0463333 5.9907005,9.83503183 6.19895043,9.72882437 C6.40720036,9.6226169 6.65679006,9.6384022 6.85,9.77 L10,12.1 L6.85,14.42 Z" id="Shape"></path>
            </g>
        </g>
    </g>
</svg>