<?xml version="1.0" encoding="UTF-8"?>
<svg width="72px" height="144px" viewBox="0 0 72 144" version="1.1" xmlns="http://www.w3.org/2000/svg" xmlns:xlink="http://www.w3.org/1999/xlink">
    <!-- Generator: sketchtool 58 (101010) - https://sketch.com -->
    <title>9CB5C3D5-6D76-4737-8CBD-B2BE9A8B318E@1.00x</title>
    <desc>Created with sketchtool.</desc>
    <defs>
        <linearGradient x1="50%" y1="3.64710172%" x2="50%" y2="100%" id="linearGradient-1">
            <stop stop-color="#EEDFA2" offset="0%"></stop>
            <stop stop-color="#A9935A" offset="58.853881%"></stop>
            <stop stop-color="#FEE3A5" offset="100%"></stop>
        </linearGradient>
        <path d="M21.032,3.58225 L28.969,8.16525 C30.845,9.24825 32,11.24925 32,13.41525 L32,22.58125 C32,24.74725 30.845,26.74825 28.969,27.83125 L21.032,32.41425 C19.156,33.49725 16.845,33.49725 14.969,32.41425 L7.032,27.83125 C5.156,26.74825 4,24.74725 4,22.58125 L4,13.41525 C4,11.24925 5.156,9.24825 7.032,8.16525 L14.969,3.58225 C16.845,2.49925 19.156,2.49925 21.032,3.58225 Z M15.976,5.31025 L8.025,9.90125 C6.772,10.62425 6,11.96125 6,13.40725 L6,22.58925 C6,24.03525 6.772,25.37225 8.025,26.09525 L15.976,30.68625 C17.229,31.40925 18.772,31.40925 20.025,30.68625 L27.976,26.09525 C29.229,25.37225 30,24.03525 30,22.58925 L30,13.40725 C30,11.96125 29.229,10.62425 27.976,9.90125 L20.025,5.31025 C18.772,4.58725 17.229,4.58725 15.976,5.31025 Z M19.559,8.50825 L25.442,11.90425 C26.406,12.46125 27,13.49025 27,14.60425 L27,21.39625 C27,22.51025 26.406,23.53925 25.442,24.09625 L19.559,27.49225 C18.594,28.04925 17.406,28.04925 16.442,27.49225 L10.559,24.09625 C9.594,23.53925 9,22.51025 9,21.39625 L9,14.60425 C9,13.49025 9.594,12.46125 10.559,11.90425 L16.442,8.50825 C17.406,7.95125 18.594,7.95125 19.559,8.50825 Z M21,15.00025 L15,15.00025 L15,21.00025 L21,21.00025 L21,15.00025 Z" id="path-2"></path>
        <filter x="-1.8%" y="-1.6%" width="103.6%" height="106.6%" filterUnits="objectBoundingBox" id="filter-3">
            <feOffset dx="0" dy="1" in="SourceAlpha" result="shadowOffsetOuter1"></feOffset>
            <feColorMatrix values="0 0 0 0 0   0 0 0 0 0   0 0 0 0 0  0 0 0 0.5 0" type="matrix" in="shadowOffsetOuter1"></feColorMatrix>
        </filter>
        <filter x="-1.8%" y="-1.6%" width="103.6%" height="106.6%" filterUnits="objectBoundingBox" id="filter-4">
            <feOffset dx="0" dy="1" in="SourceAlpha" result="shadowOffsetInner1"></feOffset>
            <feComposite in="shadowOffsetInner1" in2="SourceAlpha" operator="arithmetic" k2="-1" k3="1" result="shadowInnerInner1"></feComposite>
            <feColorMatrix values="0 0 0 0 0.996078431   0 0 0 0 0.980392157   0 0 0 0 0.788235294  0 0 0 0.551628059 0" type="matrix" in="shadowInnerInner1"></feColorMatrix>
        </filter>
    </defs>
    <g id="Web-Spritesheet" stroke="none" stroke-width="1" fill="none" fill-rule="evenodd">
        <g id="economy_light">
            <g id="status/premium" transform="translate(0.000000, 108.000000)" fill="#393B3D">
                <path d="M25,11 L25,25 L18,25 L18,21 L21,21 L21,15 L15,15 L15,32 L11,32 L11,11 L25,11 Z M28,4 C30.1421954,4 31.8910789,5.68396847 31.9951047,7.80035966 L32,8 L32,28 C32,30.209139 30.209139,32 28,32 L18,32 L18,28 L28,28 L28,8 L8,8 L8,32 C5.790861,32 4,30.209139 4,28 L4,8 C4,5.85780461 5.68396847,4.10892112 7.80035966,4.00489531 L8,4 L28,4 Z" id="p-block"></path>
            </g>
            <g id="common/robux" transform="translate(0.000000, 72.000000)" fill="#FFFFFF">
                <path d="M28.9688,8.165 C30.8448,9.248 31.9998,11.249 31.9998,13.415 L31.9998,22.581 C31.9998,24.747 30.8448,26.748 28.9688,27.831 L21.0318,32.414 C19.1558,33.497 16.8448,33.497 14.9688,32.414 L7.0318,27.831 C5.1558,26.748 3.9998,24.747 3.9998,22.581 L3.9998,13.415 C3.9998,11.249 5.1558,9.248 7.0318,8.165 L14.9688,3.582 C16.8448,2.499 19.1558,2.499 21.0318,3.582 L28.9688,8.165 Z M15.9758,5.31 L8.0248,9.901 C6.7718,10.624 5.9998,11.961 5.9998,13.407 L5.9998,22.589 C5.9998,24.035 6.7718,25.372 8.0248,26.095 L15.9758,30.686 C17.2288,31.409 18.7718,31.409 20.0248,30.686 L27.9758,26.095 C29.2288,25.372 29.9998,24.035 29.9998,22.589 L29.9998,13.407 C29.9998,11.961 29.2288,10.624 27.9758,9.901 L20.0248,5.31 C18.7718,4.587 17.2288,4.587 15.9758,5.31 L15.9758,5.31 Z M19.5588,8.508 L25.4418,11.904 C26.4058,12.461 26.9998,13.49 26.9998,14.604 L26.9998,21.396 C26.9998,22.51 26.4058,23.539 25.4418,24.096 L19.5588,27.492 C18.5938,28.049 17.4058,28.049 16.4418,27.492 L10.5588,24.096 C9.5938,23.539 8.9998,22.51 8.9998,21.396 L8.9998,14.604 C8.9998,13.49 9.5938,12.461 10.5588,11.904 L16.4418,8.508 C17.4058,7.951 18.5938,7.951 19.5588,8.508 L19.5588,8.508 Z M14.9998,21 L20.9998,21 L20.9998,15 L14.9998,15 L14.9998,21 Z" id="coin"></path>
            </g>
            <g id="common/robux" transform="translate(36.000000, 36.000000)" fill="#393B3D">
                <path d="M28.9688,8.165 C30.8448,9.248 31.9998,11.249 31.9998,13.415 L31.9998,22.581 C31.9998,24.747 30.8448,26.748 28.9688,27.831 L21.0318,32.414 C19.1558,33.497 16.8448,33.497 14.9688,32.414 L7.0318,27.831 C5.1558,26.748 3.9998,24.747 3.9998,22.581 L3.9998,13.415 C3.9998,11.249 5.1558,9.248 7.0318,8.165 L14.9688,3.582 C16.8448,2.499 19.1558,2.499 21.0318,3.582 L28.9688,8.165 Z M15.9758,5.31 L8.0248,9.901 C6.7718,10.624 5.9998,11.961 5.9998,13.407 L5.9998,22.589 C5.9998,24.035 6.7718,25.372 8.0248,26.095 L15.9758,30.686 C17.2288,31.409 18.7718,31.409 20.0248,30.686 L27.9758,26.095 C29.2288,25.372 29.9998,24.035 29.9998,22.589 L29.9998,13.407 C29.9998,11.961 29.2288,10.624 27.9758,9.901 L20.0248,5.31 C18.7718,4.587 17.2288,4.587 15.9758,5.31 L15.9758,5.31 Z M19.5588,8.508 L25.4418,11.904 C26.4058,12.461 26.9998,13.49 26.9998,14.604 L26.9998,21.396 C26.9998,22.51 26.4058,23.539 25.4418,24.096 L19.5588,27.492 C18.5938,28.049 17.4058,28.049 16.4418,27.492 L10.5588,24.096 C9.5938,23.539 8.9998,22.51 8.9998,21.396 L8.9998,14.604 C8.9998,13.49 9.5938,12.461 10.5588,11.904 L16.4418,8.508 C17.4058,7.951 18.5938,7.951 19.5588,8.508 L19.5588,8.508 Z M14.9998,21 L20.9998,21 L20.9998,15 L14.9998,15 L14.9998,21 Z" id="coin"></path>
            </g>
            <g id="common/robux" transform="translate(0.000000, 36.000000)" fill="#000000" fill-opacity="0.5">
                <path d="M28.9688,8.165 C30.8448,9.248 31.9998,11.249 31.9998,13.415 L31.9998,22.581 C31.9998,24.747 30.8448,26.748 28.9688,27.831 L21.0318,32.414 C19.1558,33.497 16.8448,33.497 14.9688,32.414 L7.0318,27.831 C5.1558,26.748 3.9998,24.747 3.9998,22.581 L3.9998,13.415 C3.9998,11.249 5.1558,9.248 7.0318,8.165 L14.9688,3.582 C16.8448,2.499 19.1558,2.499 21.0318,3.582 L28.9688,8.165 Z M15.9758,5.31 L8.0248,9.901 C6.7718,10.624 5.9998,11.961 5.9998,13.407 L5.9998,22.589 C5.9998,24.035 6.7718,25.372 8.0248,26.095 L15.9758,30.686 C17.2288,31.409 18.7718,31.409 20.0248,30.686 L27.9758,26.095 C29.2288,25.372 29.9998,24.035 29.9998,22.589 L29.9998,13.407 C29.9998,11.961 29.2288,10.624 27.9758,9.901 L20.0248,5.31 C18.7718,4.587 17.2288,4.587 15.9758,5.31 L15.9758,5.31 Z M19.5588,8.508 L25.4418,11.904 C26.4058,12.461 26.9998,13.49 26.9998,14.604 L26.9998,21.396 C26.9998,22.51 26.4058,23.539 25.4418,24.096 L19.5588,27.492 C18.5938,28.049 17.4058,28.049 16.4418,27.492 L10.5588,24.096 C9.5938,23.539 8.9998,22.51 8.9998,21.396 L8.9998,14.604 C8.9998,13.49 9.5938,12.461 10.5588,11.904 L16.4418,8.508 C17.4058,7.951 18.5938,7.951 19.5588,8.508 L19.5588,8.508 Z M14.9998,21 L20.9998,21 L20.9998,15 L14.9998,15 L14.9998,21 Z" id="coin"></path>
            </g>
            <g id="common/goldrobux">
                <g id="gold-coin">
                    <use fill="black" fill-opacity="1" filter="url(#filter-3)" xlink:href="#path-2"></use>
                    <use fill="url(#linearGradient-1)" fill-rule="evenodd" xlink:href="#path-2"></use>
                    <use fill="black" fill-opacity="1" filter="url(#filter-4)" xlink:href="#path-2"></use>
                </g>
            </g>
        </g>
    </g>
</svg>