<?xml version="1.0" encoding="utf-8"?>
<!-- Generator: Adobe Illustrator 21.0.2, SVG Export Plug-In . SVG Version: 6.00 Build 0)  -->
<svg version="1.1" id="Layer_1" xmlns="http://www.w3.org/2000/svg" xmlns:xlink="http://www.w3.org/1999/xlink" x="0px" y="0px"
	 width="90px" height="90px" viewBox="0 0 90 90" style="enable-background:new 0 0 90 90;" xml:space="preserve">
<style type="text/css">
	.st0{fill:#656668;}
	.st1{opacity:0.3;}
	.st2{fill:none;stroke:#000000;stroke-width:2;stroke-linecap:round;stroke-linejoin:round;stroke-miterlimit:10;}
	.st3{enable-background:new    ;}
	.st4{fill:none;stroke:#000000;stroke-width:1.5;stroke-linecap:round;stroke-linejoin:round;stroke-miterlimit:10;}
</style>
<g id="unavailable_1_">
	<rect id="bg_3_" class="st0" width="90" height="90"/>
	<g id="unavailable" class="st1">
		<polyline class="st2" points="32.5,23.5 28.5,23.5 28.5,27.5 		"/>
		<polyline class="st2" points="28.5,62.5 28.5,66.5 32.5,66.5 		"/>
		<line class="st2" x1="28.5" y1="31.8" x2="28.5" y2="37.8"/>
		<line class="st2" x1="28.5" y1="42" x2="28.5" y2="48"/>
		<line class="st2" x1="28.5" y1="52.2" x2="28.5" y2="58.2"/>
		<polyline class="st2" points="57.5,66.5 61.5,66.5 61.5,62.5 		"/>
		<line class="st2" x1="61.5" y1="58.2" x2="61.5" y2="52.2"/>
		<line class="st2" x1="61.5" y1="48" x2="61.5" y2="42"/>
		<line class="st2" x1="61.5" y1="37.8" x2="61.5" y2="33.8"/>
		<line class="st2" x1="36.8" y1="66.5" x2="42.8" y2="66.5"/>
		<line class="st2" x1="47.2" y1="66.5" x2="53.2" y2="66.5"/>
		<line class="st2" x1="36.8" y1="23.5" x2="42.8" y2="23.5"/>
		<line class="st2" x1="47.2" y1="23.5" x2="51.2" y2="23.5"/>
		<line class="st2" x1="51.4" y1="23.6" x2="54.9" y2="27.1"/>
		<line class="st2" x1="57.9" y1="30.1" x2="61.4" y2="33.6"/>
		<line class="st2" x1="51.2" y1="23.8" x2="51.2" y2="26.8"/>
		<line class="st2" x1="58.5" y1="33.8" x2="61.5" y2="33.8"/>
		<polyline class="st2" points="51.2,30.2 51.2,33.8 54.8,33.8 		"/>
		<g class="st3">
			<path d="M33.6,42.1h1.7l4.2,5.5v-5.5h1.8v8.7h-1.6l-4.3-5.7v5.7h-1.8C33.6,50.8,33.6,42.1,33.6,42.1z"/>
		</g>
		<g class="st3">
			<path d="M51.7,42.1h1.7l3.8,8.8h-1.9l-0.8-2h-3.8l-0.8,2H48L51.7,42.1z M53.7,47.2l-1.2-3l-1.2,3H53.7z"/>
		</g>
		<line class="st4" x1="47.2" y1="42.3" x2="44.4" y2="50.7"/>
	</g>
</g>
</svg>
