<?xml version="1.0" encoding="utf-8"?>
<!-- Generator: Adobe Illustrator 21.1.0, SVG Export Plug-In . SVG Version: 6.00 Build 0)  -->
<!DOCTYPE svg PUBLIC "-//W3C//DTD SVG 1.1//EN" "http://www.w3.org/Graphics/SVG/1.1/DTD/svg11.dtd">
<svg version="1.1" id="Layer_1" xmlns="http://www.w3.org/2000/svg" xmlns:xlink="http://www.w3.org/1999/xlink" x="0px" y="0px"
	 width="910px" height="237px" viewBox="0 0 910 237" style="enable-background:new 0 0 910 237;" xml:space="preserve" preserveAspectRatio="none">
<style type="text/css">
	.st0{fill:#393B3D;}
</style>
<g>
	<g>
		<path class="st0" d="M179.4,0L147,126l126,32.4l32.4-126L179.4,0z M235.3,94.6l-24.6-6.3l6.3-24.6l24.6,6.3L235.3,94.6z"/>
		<path class="st0" d="M85,14.1c32.8,0,47.3,19.6,47.3,38.9c0,12-5.2,22.2-14.8,28.8c14,15.9,22.5,37.4,25.1,62.3H82.9
			C80.5,109.6,73.1,96,57.6,96v48.2H0V14.1H85z M57.6,66h1.6c10.5,0,15.5-3.8,15.5-12.2c0-5.6-2.8-12.9-13.6-12.9h-3.5V66z"/>
		<path class="st0" d="M400.2,14.1c42.1,0,50.5,21.3,50.5,36.3c0,10.6-3.8,20.4-16.9,27.9c16.4,8.7,20.4,18.7,20.4,29.9
			c0,20.1-14.1,36-44.5,36h-90.8V14.1H400.2z M376.4,65.6h1.4c12.6,0,17.3-3.5,17.3-12.7c0-7.2-3.5-12.6-15.2-12.6h-3.5L376.4,65.6
			L376.4,65.6z M376.4,115.5h1.7c13.3,0,18.3-3.7,18.3-13.4c0-8.6-4-14.7-16.1-14.7h-4v28.1H376.4z"/>
		<path class="st0" d="M471.8,14.1h57.6v97.4h50.5v32.6H471.8V14.1z"/>
		<path class="st0" d="M597.5,14.1v130.1h130.1V14.1H597.5z M675.2,91.8h-25.4V66.4h25.4V91.8z"/>
		<path class="st0" d="M743.1,14.1h62.8L825.1,38l18.3-23.9h62.5L856.7,78l52.4,66.2h-63l-20.6-25.8l-19.9,25.8h-62.5l50.8-65.8
			L743.1,14.1z"/>
	</g>
	<g>
		<path class="st0" d="M129.4,186.4H147c10.3,0,17,5.3,17,14.3v0.1c0,9.7-7.4,14.8-17.6,14.8h-5.7v11.7h-11.4L129.4,186.4
			L129.4,186.4z M146.2,206.8c4,0,6.5-2.2,6.5-5.4v-0.1c0-3.5-2.5-5.3-6.6-5.3h-5.4v10.8H146.2z"/>
		<path class="st0" d="M166.6,211.7v-0.1c0-9,7.4-16.6,17.5-16.6s17.5,7.4,17.5,16.5v0.1c0,9-7.4,16.6-17.6,16.6
			C174,228.1,166.6,220.7,166.6,211.7z M190.8,211.7v-0.1c0-3.9-2.9-7.2-6.8-7.2c-4,0-6.6,3.2-6.6,7.1v0.1c0,3.9,2.8,7.1,6.7,7.1
			C188.2,218.7,190.8,215.5,190.8,211.7z"/>
		<path class="st0" d="M202.6,195.7h10.8l4.2,15.9l4.9-16h9.1l4.9,16.2l4.3-16h10.7l-9.8,31.9h-9.6l-5.2-16.5l-5.3,16.5h-9.5
			L202.6,195.7z"/>
		<path class="st0" d="M252.5,211.7v-0.1c0-9.3,6.6-16.6,16-16.6c10.9,0,15.9,8,15.9,17.3c0,0.7,0,1.5-0.1,2.3h-21.2
			c0.9,3.5,3.4,5.2,6.9,5.2c2.7,0,4.7-1,7-3.2l6.1,5.1c-3,3.9-7.4,6.4-13.7,6.4C259.6,228.1,252.5,221.5,252.5,211.7z M274.1,208.9
			c-0.4-3.5-2.5-5.7-5.6-5.7c-2.9,0-4.9,2.2-5.5,5.7H274.1z"/>
		<path class="st0" d="M289.3,195.7h11.1v6.4c1.8-4.3,4.7-7.1,10-6.9v11.7h-0.9c-5.8,0-9.1,3.3-9.1,10.6v9.9h-11.1V195.7z"/>
		<path class="st0" d="M314.4,184.6h11.5v8.2h-11.5V184.6z M314.6,195.7h11.1v31.7h-11.1V195.7z"/>
		<path class="st0" d="M332,195.7h11.1v4.5c2-2.6,5-5.2,9.5-5.2c6.7,0,10.8,4.5,10.8,11.7v20.7h-11.1v-17.2c0-3.5-1.8-5.4-4.5-5.4
			s-4.7,1.9-4.7,5.4v17.2H332V195.7z"/>
		<path class="st0" d="M368.8,233.2l3.6-7.4c3.4,1.9,6.8,3,11.1,3c5.5,0,8.3-2.8,8.3-7.8v-1.2c-2.2,2.6-5.2,4.7-9.7,4.7
			c-7.8,0-14.1-5.6-14.1-14.7v-0.1c0-9.1,6.4-14.8,13.7-14.8c4.8,0,7.6,1.9,10,4.5v-3.7h11.1v24.1c0,5.8-1.3,9.9-4.1,12.6
			c-2.9,2.9-7.3,4.5-13.9,4.5C378.6,236.9,373.4,235.6,368.8,233.2z M391.8,209.9v-0.1c0-3.5-2.8-6.1-6.5-6.1
			c-3.8,0-6.5,2.6-6.5,6.2v0.1c0,3.5,2.7,6.1,6.5,6.1S391.8,213.4,391.8,209.9z"/>
		<path class="st0" d="M425.8,186.4h11.4v41h-11.4V186.4z"/>
		<path class="st0" d="M444,195.7h11.1v4.3c2-2.6,5-5,9.4-5c4.2,0,7.4,1.9,9.1,5.2c2.8-3.2,6-5.2,10.6-5.2c6.7,0,10.8,4.2,10.8,11.6
			v20.8h-11v-17.2c0-3.5-1.7-5.3-4.3-5.3c-2.6,0-4.6,1.9-4.6,5.3v17.2H464v-17.2c0-3.5-1.8-5.3-4.4-5.3s-4.5,1.9-4.5,5.3v17.2H444
			V195.7z"/>
		<path class="st0" d="M499.4,218.3v-0.1c0-6.6,5-10,12.4-10c2.9,0,5.8,0.5,7.6,1.2v-0.5c0-3.3-2-5.2-6.3-5.2
			c-3.3,0-5.9,0.7-8.8,1.8l-2.3-7.8c3.6-1.5,7.4-2.5,12.8-2.5c5.7,0,9.5,1.3,12.1,3.9c2.4,2.3,3.4,5.6,3.4,10.1v18.2h-11v-3.3
			c-2.2,2.4-5.2,4-9.4,4C503.9,228.1,499.4,224.6,499.4,218.3z M519.5,215.9v-1.5c-1.2-0.5-2.8-0.8-4.4-0.8c-3.2,0-5.1,1.5-5.1,3.9
			v0.1c0,2.2,1.6,3.5,3.9,3.5C517.2,221.1,519.5,219.1,519.5,215.9z"/>
		<path class="st0" d="M535.7,233.2l3.6-7.4c3.4,1.9,6.8,3,11.1,3c5.5,0,8.3-2.8,8.3-7.8v-1.2c-2.2,2.6-5.2,4.7-9.7,4.7
			c-7.8,0-14.1-5.6-14.1-14.7v-0.1c0-9.1,6.4-14.8,13.7-14.8c4.8,0,7.6,1.9,10,4.5v-3.7h11.1v24.1c0,5.8-1.3,9.9-4.1,12.6
			c-2.9,2.9-7.3,4.5-13.9,4.5C545.5,236.9,540.3,235.6,535.7,233.2z M558.7,209.9v-0.1c0-3.5-2.8-6.1-6.5-6.1
			c-3.8,0-6.5,2.6-6.5,6.2v0.1c0,3.5,2.7,6.1,6.5,6.1C556,216,558.7,213.4,558.7,209.9z"/>
		<path class="st0" d="M575.6,184.6h11.5v8.2h-11.5V184.6z M575.9,195.7H587v31.7h-11.1V195.7z"/>
		<path class="st0" d="M593.2,195.7h11.1v4.5c2-2.6,5-5.2,9.5-5.2c6.7,0,10.8,4.5,10.8,11.7v20.7h-11.1v-17.2c0-3.5-1.8-5.4-4.5-5.4
			s-4.7,1.9-4.7,5.4v17.2h-11.1V195.7z"/>
		<path class="st0" d="M628.8,218.3v-0.1c0-6.6,5-10,12.4-10c2.9,0,5.8,0.5,7.6,1.2v-0.5c0-3.3-2-5.2-6.3-5.2
			c-3.3,0-5.9,0.7-8.8,1.8l-2.3-7.8c3.6-1.5,7.4-2.5,12.8-2.5c5.7,0,9.5,1.3,12.1,3.9c2.4,2.3,3.4,5.6,3.4,10.1v18.2h-11v-3.3
			c-2.2,2.4-5.2,4-9.4,4C633.4,228.1,628.8,224.6,628.8,218.3z M648.9,215.9v-1.5c-1.2-0.5-2.8-0.8-4.4-0.8c-3.2,0-5.1,1.5-5.1,3.9
			v0.1c0,2.2,1.6,3.5,3.9,3.5C646.7,221.1,648.9,219.1,648.9,215.9z"/>
		<path class="st0" d="M667.1,217.6v-12.9h-3.7v-8.9h3.7v-8h11.1v8h7.4v8.9h-7.4v10.8c0,2.2,1,3.2,3,3.2c1.5,0,2.9-0.4,4.2-1.1v8.7
			c-2,1.1-4.6,1.9-7.7,1.9C671,228,667.1,225.1,667.1,217.6z"/>
		<path class="st0" d="M690.4,184.6h11.5v8.2h-11.5V184.6z M690.6,195.7h11.1v31.7h-11.1V195.7z"/>
		<path class="st0" d="M706.7,211.7v-0.1c0-9,7.4-16.6,17.5-16.6s17.5,7.4,17.5,16.5v0.1c0,9-7.4,16.6-17.6,16.6
			C714.1,228.1,706.7,220.7,706.7,211.7z M730.9,211.7v-0.1c0-3.9-2.9-7.2-6.8-7.2c-4,0-6.6,3.2-6.6,7.1v0.1c0,3.9,2.8,7.1,6.7,7.1
			C728.3,218.7,730.9,215.5,730.9,211.7z"/>
		<path class="st0" d="M746.4,195.7h11.1v4.5c2-2.6,5-5.2,9.5-5.2c6.7,0,10.8,4.5,10.8,11.7v20.7h-11.1v-17.2c0-3.5-1.8-5.4-4.5-5.4
			s-4.7,1.9-4.7,5.4v17.2h-11.1V195.7z"/>
	</g>
</g>
</svg>
